<svg width="75" height="75" viewBox="0 0 75 75" fill="none" xmlns="http://www.w3.org/2000/svg">
<circle cx="37.5" cy="37.5" r="37.5" fill="white"/>
<path d="M37.0107 63H36.9861C36.8205 62.9995 36.6563 62.9694 36.5013 62.911C36.348 62.8565 36.198 62.7932 36.052 62.7212C35.8818 62.6407 35.5866 62.4971 35.1529 62.2716C34.5102 61.9382 33.4758 61.3794 32.198 60.6152C30.0522 59.3318 26.9322 57.2882 24.2537 54.8436C18.2985 49.4067 17.0602 39.8395 17.0104 39.4347L17 39.3457V20.9866C16.9985 19.7187 17.4425 18.4908 18.2541 17.5192C19.0656 16.5476 20.1926 15.8946 21.4366 15.6751L36.0171 13.0863C36.6663 12.9712 37.3305 12.9712 37.9797 13.0863L52.5602 15.6751C53.8047 15.8939 54.9325 16.5467 55.7447 17.5183C56.5569 18.49 57.0014 19.7182 57 20.9866V39.3457L56.9896 39.4347C56.9398 39.8395 55.7041 49.4067 49.7457 54.8436C47.0678 57.2882 43.9478 59.3318 41.802 60.6152C40.5242 61.3794 39.4898 61.9382 38.8471 62.2716C38.4134 62.4971 38.1182 62.6407 37.948 62.7212C37.8021 62.7933 37.6521 62.8567 37.4987 62.911C37.3427 62.9697 37.1774 62.9999 37.0107 63ZM19.9129 39.1566C20.0423 40.052 21.3266 48.2208 26.213 52.6804C30.1532 56.2758 35.3581 59.118 36.9984 59.9329C38.6386 59.118 43.8436 56.2758 47.7831 52.6804C52.6683 48.2227 53.9577 40.0585 54.0871 39.1566V20.9866C54.0881 20.4061 53.8848 19.8439 53.5132 19.399C53.1416 18.9542 52.6255 18.6553 52.0559 18.555L37.4722 15.9662C37.1588 15.9103 36.838 15.9103 36.5246 15.9662L21.9441 18.555C21.3745 18.6553 20.8584 18.9542 20.4868 19.399C20.1152 19.8439 19.9119 20.4061 19.9129 20.9866V39.1566Z" fill="#FF723D"/>
<path d="M36.9882 55.9992C36.8015 55.999 36.6168 55.9616 36.4446 55.8892C36.3328 55.8457 36.2235 55.7962 36.1171 55.741C35.9454 55.6541 35.7293 55.5388 35.4915 55.4064C35.0507 55.1614 34.342 54.7523 33.4682 54.1925C31.9997 53.2519 29.8657 51.7554 28.0252 49.9585C23.8947 45.9241 23.0472 38.8757 23.0092 38.5773L23 38.493V25.1996C23 23.1063 24.4233 21.3167 26.3844 20.9446L36.2336 19.0726C36.7391 18.9758 37.2582 18.9758 37.7637 19.0726L47.615 20.9446C49.5767 21.3167 51 23.1063 51 25.1996V38.4936L50.9902 38.5779C50.9561 38.8763 50.1053 45.9248 45.9748 49.9592C44.1369 51.7547 42.0003 53.2525 40.5318 54.1931C39.6573 54.753 38.9493 55.162 38.5085 55.4071C38.2707 55.5388 38.0546 55.6547 37.8829 55.7417C37.7765 55.7969 37.6671 55.8463 37.5554 55.8899C37.3799 55.965 37.1907 56.0025 37 55.9999L36.9882 55.9992ZM25.9495 38.3132C26.0471 39.0318 26.9123 44.7359 30.0806 47.8316C32.5434 50.2371 35.7136 52.1493 37.0007 52.8587C38.2904 52.1493 41.4586 50.2371 43.9214 47.8316C47.0877 44.7359 47.9536 39.0364 48.0525 38.3118V25.1996C48.0525 24.5409 47.6294 23.9633 47.07 23.8566L37.2188 21.9846C37.0749 21.9573 36.9271 21.9573 36.7832 21.9846L26.9339 23.8559C26.3726 23.9626 25.9514 24.5403 25.9514 25.1989L25.9495 38.3132Z" fill="#FF723D"/>
</svg>
