<svg width="75" height="75" viewBox="0 0 75 75" fill="none" xmlns="http://www.w3.org/2000/svg">
<circle cx="37.5" cy="37.5" r="37.5" fill="white"/>
<path d="M21.2571 39L11 54.1497L19.3596 52.8769L20.8612 62L31 47.5127L21.2571 39Z" fill="#FF723D"/>
<path d="M53.7429 39L64 54.1497L55.6404 52.8769L54.1388 62L44 47.5127L53.7429 39Z" fill="#FF723D"/>
<path d="M37.5006 49.9999C33.2205 50.0001 29.0728 48.5161 25.7642 45.801C22.4555 43.0858 20.1907 39.3074 19.3556 35.1096C18.5205 30.9118 19.1667 26.5543 21.1842 22.7796C23.2018 19.0048 26.4657 16.0464 30.4199 14.4084C34.3742 12.7704 38.774 12.5541 42.8698 13.7965C46.9656 15.0388 50.504 17.6629 52.8819 21.2216C55.2599 24.7803 56.3304 29.0534 55.9109 33.3129C55.4915 37.5723 53.6081 41.5546 50.5817 44.5811C48.8679 46.3045 46.8294 47.6708 44.584 48.6009C42.3386 49.531 39.931 50.0066 37.5006 49.9999ZM37.5006 15.9482C28.925 15.9482 21.9488 22.9244 21.9488 31.5C21.9488 40.0755 28.925 47.0517 37.5006 47.0517C46.0761 47.0517 53.0523 40.0748 53.0523 31.5C53.0523 22.9251 46.0761 15.9482 37.5006 15.9482Z" fill="#FF723D"/>
<path d="M38 19C35.6266 19 33.3066 19.7038 31.3332 21.0224C29.3598 22.3409 27.8217 24.2151 26.9135 26.4078C26.0052 28.6005 25.7676 31.0133 26.2306 33.3411C26.6936 35.6689 27.8365 37.807 29.5147 39.4853C31.193 41.1635 33.3311 42.3064 35.6589 42.7694C37.9867 43.2324 40.3995 42.9948 42.5922 42.0866C44.7849 41.1783 46.6591 39.6402 47.9776 37.6668C49.2962 35.6934 50 33.3734 50 31C50 27.8174 48.7357 24.7652 46.4853 22.5147C44.2348 20.2643 41.1826 19 38 19ZM36.4974 37.6685L29.8599 32.0844L32.2297 29.2677L36.1175 32.5401L43.3816 24.3315L46.1379 26.7706L36.4974 37.6685Z" fill="#FF723D"/>
</svg>
