<svg width="75" height="75" viewBox="0 0 75 75" fill="none" xmlns="http://www.w3.org/2000/svg">
<circle cx="37.5" cy="37.5" r="37.5" fill="white"/>
<path d="M17.5556 51C19.9211 51 22.0039 50.4821 23.7502 49.7762L23.8486 49.9784C27.1583 56.7751 34.5548 61 42.5556 61C45.1952 61 47.7335 60.544 50.074 59.704C51.8557 60.4466 53.999 61 56.4444 61C59.4044 61 61.6671 59.0782 62.5496 56.7839C63.4167 54.543 63.0081 52.0078 61.4986 50.1553L61.48 50.1325C61.4794 50.1318 61.4788 50.131 61.4782 50.1302C61.4623 50.11 61.4292 50.0675 61.3824 50.0052C61.3582 49.9728 61.3307 49.9357 61.3005 49.8941C62.3792 47.6577 63 45.1595 63 42.5C63 34.354 57.3495 28.0123 50.368 25.3993C47.1841 18.3964 39.4472 14 31.4444 14C20.9956 14 11 21.4947 11 32.5C11 35.1637 11.6226 37.6587 12.7001 39.8918C12.6677 39.9364 12.6384 39.9761 12.6127 40.0106C12.5656 40.0736 12.5322 40.1167 12.5158 40.1375C10.9062 42.09 10.6327 44.6609 11.4496 46.7817C12.3163 49.0318 14.5452 51 17.5556 51Z" fill="#FF723D" stroke="white" stroke-width="12"/>
</svg>
