<svg width="75" height="75" viewBox="0 0 75 75" fill="none" xmlns="http://www.w3.org/2000/svg">
<circle cx="37.5" cy="37.5" r="37.5" fill="white"/>
<path d="M37.4913 63C31.6082 62.9958 25.9073 60.9587 21.3543 57.2338C16.8013 53.5088 13.6761 48.3249 12.5079 42.5602C11.3398 36.7954 12.2006 30.8042 14.9445 25.6012C17.6884 20.3983 22.1467 16.3035 27.5643 14.0104C33.7963 11.3782 40.819 11.3289 47.0873 13.8734C53.3557 16.4179 58.3563 21.3477 60.9891 27.5784C63.6219 33.8091 63.6713 40.8302 61.1262 47.0972C58.5812 53.3643 53.6503 58.3638 47.4183 60.996C44.2778 62.3248 40.9014 63.0064 37.4913 63ZM37.4913 14.5658C32.1836 14.5659 27.0402 16.406 22.9374 19.7725C18.8346 23.139 16.0262 27.8237 14.9908 33.0282C13.9555 38.2328 14.7571 43.6353 17.2592 48.3152C19.7613 52.9951 23.809 56.6629 28.7126 58.6935C33.6163 60.7242 39.0725 60.9921 44.1516 59.4517C49.2307 57.9113 53.6185 54.6578 56.5672 50.2455C59.516 45.8333 60.8433 40.5354 60.3231 35.2544C59.8029 29.9734 57.4672 25.0362 53.7141 21.2839C51.5887 19.1473 49.0604 17.4534 46.2758 16.3002C43.4911 15.1471 40.5054 14.5575 37.4913 14.5658Z" fill="#FF723D"/>
<path d="M39 13H36V62H39V13Z" fill="#FF723D"/>
<path d="M36.4915 63C36.3578 62.9717 33.1967 62.2691 30.0885 58.8569C28.3018 56.8968 26.8826 54.4312 25.8706 51.5289C24.6272 47.9696 24 43.7346 24 38.9409C24 33.5255 24.5949 28.7587 25.768 24.7723C26.7247 21.5226 28.0681 18.7718 29.7602 16.5972C32.1393 13.5414 34.767 12.2685 35.9438 12L36.4803 14.5086H36.4915C35.6386 14.7205 33.5076 15.8059 31.5525 18.398C30.0947 20.3306 28.9291 22.7916 28.0892 25.7145C27.0243 29.4196 26.4841 33.871 26.4841 38.9447C26.4841 43.3762 27.0486 47.2759 28.1626 50.5276C29.0391 53.0876 30.2551 55.2539 31.7781 56.9661C33.8401 59.2846 36.0955 60.2833 37 60.4875H36.9925L36.4915 63Z" fill="#FF723D"/>
<path d="M39.0565 63L38.5199 60.4952H38.5087C39.3618 60.2833 41.4934 59.1979 43.4491 56.6057C44.9073 54.6732 46.0732 52.2121 46.9133 49.2898C47.9785 45.584 48.5189 41.1332 48.5189 36.0594C48.5189 31.6279 47.9543 27.7288 46.8399 24.4764C45.9632 21.9164 44.7469 19.7507 43.2234 18.0385C41.1608 15.7193 38.9048 14.7206 38 14.5163H38.0075L38.5049 12C38.6386 12.0283 41.8006 12.7315 44.9098 16.1432C46.6969 18.104 48.1166 20.5696 49.1289 23.4713C50.3726 27.0306 51 31.2657 51 36.0594C51 41.4749 50.4049 46.2417 49.2315 50.2282C48.2745 53.4786 46.9307 56.2287 45.2381 58.4034C42.8621 61.4624 40.2336 62.7335 39.0565 63Z" fill="#FF723D"/>
<path d="M58.8905 49C58.8796 48.9945 57.7203 48.43 54.5525 47.8752C51.6502 47.3667 46.4087 46.7601 37.9232 46.7601C21.4796 46.7601 15.9079 48.7709 15.8535 48.7916L15 46.1895C15.2323 46.0998 20.8935 44 37.9232 44C45.0465 44 50.883 44.4057 55.271 45.2055C58.6096 45.8148 59.8676 46.4434 60 46.5124L58.8777 48.9966L58.8905 49Z" fill="#FF723D"/>
<path d="M37.0752 32C29.9524 32 24.1163 31.6754 19.7287 31.0351C16.3903 30.5482 15.1324 30.0453 15 29.9895L16.1254 28.005L16.1126 28C16.1235 28.0044 17.2828 28.4554 20.4497 28.8998C23.3524 29.3067 28.5935 29.7919 37.0784 29.7919C53.5241 29.7919 59.0921 28.1833 59.1465 28.1667L60 30.2484C59.7639 30.3202 54.1037 32 37.0752 32Z" fill="#FF723D"/>
</svg>
