<svg width="75" height="75" viewBox="0 0 75 75" fill="none" xmlns="http://www.w3.org/2000/svg">
<circle cx="37.5" cy="37.5" r="37.5" fill="white"/>
<path d="M43.487 42H31.513C24.0503 42 18 47.5666 18 54.4337V54.9252C18 55.7407 18.3521 56.5227 18.9788 57.0994C19.6055 57.676 20.4555 58 21.3418 58H53.6582C54.5445 58 55.3945 57.676 56.0212 57.0994C56.6479 56.5227 57 55.7407 57 54.9252V54.4337C57 47.5666 50.9497 42 43.487 42Z" fill="#FF723D"/>
<path d="M37.5 38C42.7467 38 47 33.5228 47 28C47 22.4772 42.7467 18 37.5 18C32.2533 18 28 22.4772 28 28C28 33.5228 32.2533 38 37.5 38Z" fill="#FF723D"/>
</svg>
