<svg width="23" height="28" viewBox="0 0 23 28" fill="none" xmlns="http://www.w3.org/2000/svg">
<path d="M7.97448 16.6694H15.0249C16.8746 16.6693 18.6485 17.4539 19.9566 18.8507C21.2646 20.2476 21.9997 22.1423 22 24.118V24.8271C22 25.3157 21.8183 25.7843 21.4948 26.1298C21.1714 26.4753 20.7327 26.6694 20.2752 26.6694H2.72478C2.26734 26.6694 1.82864 26.4753 1.50518 26.1298C1.18172 25.7843 1 25.3157 1 24.8271V24.118C1.00032 22.1424 1.73527 20.2478 3.04321 18.851C4.35114 17.4541 6.12494 16.6694 7.97448 16.6694V16.6694Z" stroke="white" stroke-width="2" stroke-miterlimit="10" stroke-linecap="round"/>
<path d="M11.5 12.6694C14.5376 12.6694 17 10.207 17 7.16943C17 4.13187 14.5376 1.66943 11.5 1.66943C8.46243 1.66943 6 4.13187 6 7.16943C6 10.207 8.46243 12.6694 11.5 12.6694Z" stroke="white" stroke-width="2" stroke-miterlimit="10" stroke-linecap="round"/>
</svg>
