<svg width="30" height="31" viewBox="0 0 30 31" fill="none" xmlns="http://www.w3.org/2000/svg">
<path d="M1 1.66943H4.52259C4.84457 1.66942 5.15652 1.78171 5.40488 1.98702C5.65325 2.19232 5.82254 2.47785 5.8837 2.79459L9.11593 19.5439C9.17708 19.8607 9.34636 20.1463 9.59471 20.3516C9.84307 20.557 10.155 20.6694 10.477 20.6694H27" stroke="white" stroke-width="2" stroke-miterlimit="10" stroke-linecap="round"/>
<path d="M7 5.66943H27.5839C27.8039 5.66939 28.021 5.72083 28.2177 5.8197C28.4145 5.91856 28.5856 6.06212 28.7175 6.23898C28.8494 6.41584 28.9384 6.62113 28.9775 6.83856C29.0166 7.05599 29.0046 7.27957 28.9427 7.49157L26.8521 14.6476C26.7659 14.9425 26.5869 15.2014 26.3419 15.3856C26.0969 15.5698 25.7991 15.6694 25.493 15.6694H9.03565" stroke="white" stroke-width="2" stroke-miterlimit="10"/>
<path d="M12.5 29.6694C13.8807 29.6694 15 28.5501 15 27.1694C15 25.7887 13.8807 24.6694 12.5 24.6694C11.1193 24.6694 10 25.7887 10 27.1694C10 28.5501 11.1193 29.6694 12.5 29.6694Z" stroke="white" stroke-width="2" stroke-miterlimit="10"/>
<path d="M22.5 29.6694C23.8807 29.6694 25 28.5501 25 27.1694C25 25.7887 23.8807 24.6694 22.5 24.6694C21.1193 24.6694 20 25.7887 20 27.1694C20 28.5501 21.1193 29.6694 22.5 29.6694Z" stroke="white" stroke-width="2" stroke-miterlimit="10"/>
</svg>
